<?xml version="1.0" encoding="UTF-8"?>
<svg version="1.1" xmlns="http://www.w3.org/2000/svg" width="256" height="256">
<path d="M0 0 C3.26701612 2.66358727 6.39330111 5.45632415 9.50390625 8.30078125 C10.70273437 9.37585937 10.70273437 9.37585937 11.92578125 10.47265625 C23.25825114 21.16214912 31.2098136 34.17437024 37.50390625 48.30078125 C38.22707031 49.88246094 38.22707031 49.88246094 38.96484375 51.49609375 C50.85831091 79.68000685 49.73861746 113.35036059 38.81640625 141.55078125 C32.90108917 155.93572542 24.97072002 167.85461648 14.50390625 179.30078125 C13.7871875 180.1 13.07046875 180.89921875 12.33203125 181.72265625 C1.64759501 193.04976534 -11.36854673 201.02104767 -25.49609375 207.30078125 C-26.56214844 207.78289062 -27.62820312 208.265 -28.7265625 208.76171875 C-56.97676024 220.57739081 -90.47330584 219.55423479 -118.74609375 208.61328125 C-133.13109209 202.69851085 -145.05010841 194.76743095 -156.49609375 184.30078125 C-157.2953125 183.5840625 -158.09453125 182.86734375 -158.91796875 182.12890625 C-170.24507784 171.44447001 -178.21636017 158.42832827 -184.49609375 144.30078125 C-184.97820312 143.23472656 -185.4603125 142.16867188 -185.95703125 141.0703125 C-197.77270331 112.82011476 -196.74954729 79.32356916 -185.80859375 51.05078125 C-179.89382335 36.66578291 -171.96274345 24.74676659 -161.49609375 13.30078125 C-160.779375 12.5015625 -160.06265625 11.70234375 -159.32421875 10.87890625 C-148.63978251 -0.44820284 -135.62364077 -8.41948517 -121.49609375 -14.69921875 C-120.43003906 -15.18132813 -119.36398438 -15.6634375 -118.265625 -16.16015625 C-80.25411123 -32.05850802 -32.33712441 -25.48734406 0 0 Z M-141.49609375 48.30078125 C-150.92530838 60.68628653 -154.25170717 72.94091247 -152.49609375 88.30078125 C-151.25733984 93.81149956 -149.63304224 98.59535852 -146.49609375 103.30078125 C-144.02109375 102.80578125 -144.02109375 102.80578125 -141.49609375 102.30078125 C-141.82609375 101.18703125 -142.15609375 100.07328125 -142.49609375 98.92578125 C-144.62009476 90.18351621 -144.19978521 82.14464663 -139.49609375 74.30078125 C-134.66954338 68.7451137 -129.80646476 65.82043258 -122.41796875 64.9296875 C-114.69285787 64.76795488 -108.78719041 65.59099098 -102.49609375 70.30078125 C-96.99967853 75.7629153 -94.74523264 81.4391284 -94.24609375 89.17578125 C-94.35211555 93.68170787 -95.36899062 97.95338348 -96.49609375 102.30078125 C-95.97660156 102.53152344 -95.45710938 102.76226562 -94.921875 103 C-87.89439693 106.28641765 -83.2294608 110.20724698 -80.2265625 117.5 C-78.42857867 124.39387384 -77.83769807 132.30372296 -81.33984375 138.6328125 C-84.39514615 142.41319572 -86.80731514 143.59700746 -91.49609375 144.30078125 C-93.18766769 144.43996662 -94.88239748 144.54436485 -96.578125 144.6171875 C-97.50947266 144.65908203 -98.44082031 144.70097656 -99.40039062 144.74414062 C-100.36009766 144.78345703 -101.31980469 144.82277344 -102.30859375 144.86328125 C-103.28763672 144.90646484 -104.26667969 144.94964844 -105.27539062 144.99414062 C-107.68216402 145.09980385 -110.08903358 145.20190452 -112.49609375 145.30078125 C-105.58459855 153.57469471 -97.73452654 160.41655109 -89.30859375 167.11328125 C-88.73882812 167.56928711 -88.1690625 168.02529297 -87.58203125 168.49511719 C-85.91202347 169.80354707 -84.22013561 171.06451709 -82.49609375 172.30078125 C-81.92294434 172.71247559 -81.34979492 173.12416992 -80.75927734 173.54833984 C-77.68429156 175.54832363 -75.64812634 176.29876312 -71.96484375 176.34765625 C-67.92707343 175.12904989 -65.1627699 173.22977722 -61.99609375 170.55078125 C-61.10966187 169.82628784 -61.10966187 169.82628784 -60.20532227 169.0871582 C-58.28758168 167.508449 -56.39082551 165.9070089 -54.49609375 164.30078125 C-53.82819824 163.74116699 -53.16030273 163.18155273 -52.47216797 162.60498047 C-50.45121381 160.9086931 -48.4400352 159.20170279 -46.43359375 157.48828125 C-45.81484375 156.96202148 -45.19609375 156.43576172 -44.55859375 155.89355469 C-40.78973169 152.62157214 -37.59276572 149.21698834 -34.49609375 145.30078125 C-35.09558838 145.28096191 -35.69508301 145.26114258 -36.31274414 145.24072266 C-39.06175846 145.14473122 -41.81008868 145.0353562 -44.55859375 144.92578125 C-45.50154297 144.89484375 -46.44449219 144.86390625 -47.41601562 144.83203125 C-60.56545233 144.28222902 -60.56545233 144.28222902 -64.87109375 139.86328125 C-68.67027826 133.87225952 -68.27022562 126.57162739 -67.03515625 119.7578125 C-65.17762794 113.40943632 -61.99166476 108.23134171 -56.10546875 104.98046875 C-53.92438314 103.9996661 -51.74717161 103.10616688 -49.49609375 102.30078125 C-49.80933594 101.58277344 -50.12257813 100.86476563 -50.4453125 100.125 C-53.10404321 92.97904347 -53.09190833 85.75680912 -50.56640625 78.58984375 C-47.91071378 72.91015109 -43.79735387 68.52735367 -38.03125 65.9609375 C-31.11842076 64.1608325 -22.63711202 63.89533576 -15.99609375 66.80078125 C-10.80298246 69.99828645 -6.8635225 74.6848306 -4.05859375 80.05078125 C-2.74525405 87.63896619 -2.85664255 95.04229045 -5.49609375 102.30078125 C-3.84609375 102.63078125 -2.19609375 102.96078125 -0.49609375 103.30078125 C0.13699816 102.11757549 0.75987343 100.92890277 1.37890625 99.73828125 C1.72695312 99.07699219 2.075 98.41570312 2.43359375 97.734375 C6.83498995 87.72682087 7.44527287 74.70268389 3.87890625 64.30078125 C3.13528101 62.61213227 2.34373893 60.94370394 1.50390625 59.30078125 C1.09140625 58.45257813 0.67890625 57.604375 0.25390625 56.73046875 C-5.77472975 45.52953709 -15.50008671 38.21298798 -27.4765625 34.3359375 C-41.05677117 30.60094982 -52.88305844 32.39741708 -65.359375 39.02734375 C-67.9439485 40.56769286 -70.25998064 42.28827945 -72.49609375 44.30078125 C-75.8267511 42.72186114 -78.87255425 40.81549344 -81.99609375 38.86328125 C-101.6179613 27.4052564 -126.11755176 31.32573808 -141.49609375 48.30078125 Z M-135.3671875 79.6171875 C-138.31435687 84.01244702 -138.16480439 89.22909941 -137.49609375 94.30078125 C-135.43932139 99.31043012 -132.2043773 103.58043964 -127.49609375 106.30078125 C-121.72653843 108.3071491 -116.94457411 108.9492954 -111.3125 106.34375 C-105.66789018 103.10265146 -102.44972264 99.70434262 -100.49609375 93.30078125 C-99.79202541 86.96416618 -100.84403453 82.56470612 -104.49609375 77.30078125 C-108.6537164 72.6876887 -113.28484816 70.71963937 -119.37109375 69.92578125 C-126.40392606 70.76972113 -130.96943956 74.23683648 -135.3671875 79.6171875 Z M-41.87109375 76.67578125 C-45.44905865 81.33296926 -46.99017465 85.16872635 -46.80859375 91.18359375 C-46.02587418 96.48651883 -43.42630031 100.28198359 -39.87109375 104.17578125 C-34.84505262 107.34032567 -30.05620008 108.70665656 -24.09765625 108.02734375 C-17.82787008 106.3796525 -14.07713911 102.5870863 -10.49609375 97.30078125 C-8.57355255 91.53315765 -8.47523163 85.42103334 -11.12109375 79.92578125 C-15.76336912 74.79484531 -20.18606395 70.77967345 -27.30859375 69.98828125 C-33.31606651 70.57724917 -37.78213875 72.09814627 -41.87109375 76.67578125 Z M-147.49609375 112.30078125 C-152.03523231 117.07269614 -152.67968073 120.7722754 -152.80859375 127.23828125 C-152.84597656 128.46417969 -152.88335937 129.69007813 -152.921875 130.953125 C-152.41044524 134.97418285 -151.63681226 135.84286162 -148.49609375 138.30078125 C-145.79720955 138.90300241 -145.79720955 138.90300241 -142.79711914 138.81835938 C-141.65235611 138.83096802 -140.50759308 138.84357666 -139.32814026 138.85656738 C-138.09579147 138.84847046 -136.86344269 138.84037354 -135.59375 138.83203125 C-134.32389755 138.83585815 -133.0540451 138.83968506 -131.74571228 138.84362793 C-129.0594941 138.84635071 -126.37473096 138.84097862 -123.6887207 138.82226562 C-120.25414276 138.79949786 -116.82081666 138.81258591 -113.38628483 138.83655548 C-110.10122906 138.85452941 -106.81632215 138.84192389 -103.53125 138.83203125 C-102.30092545 138.84012817 -101.07060089 138.8482251 -99.80299377 138.85656738 C-98.65507858 138.84395874 -97.50716339 138.8313501 -96.32446289 138.81835938 C-94.81366905 138.81358582 -94.81366905 138.81358582 -93.27235413 138.80871582 C-89.72373689 138.15947363 -88.03343299 136.82490805 -85.49609375 134.30078125 C-84.20736509 128.14520673 -84.39670599 121.26311293 -87.49609375 115.67578125 C-90.39524219 111.85678967 -93.89276193 109.60429897 -98.49609375 108.30078125 C-102.40049292 108.30078125 -104.7819953 109.45478236 -108.05859375 111.36328125 C-113.6270416 114.25930001 -119.38120336 114.18689112 -125.49609375 113.30078125 C-128.31753833 112.20921835 -130.7919264 110.96267037 -133.375 109.39453125 C-138.57035849 106.71552503 -143.04642876 109.46834563 -147.49609375 112.30078125 Z M-57.24609375 113.67578125 C-61.06332286 118.12921521 -61.81930857 122.06162777 -61.93359375 127.86328125 C-61.97355469 128.97832031 -62.01351562 130.09335938 -62.0546875 131.2421875 C-61.77174109 134.4373237 -61.77174109 134.4373237 -59.32545471 136.46058655 C-56.09560421 138.56125658 -54.47920854 138.80186141 -50.66772461 138.80249023 C-49.51980942 138.81187119 -48.37189423 138.82125214 -47.18919373 138.83091736 C-45.34370689 138.81406639 -45.34370689 138.81406639 -43.4609375 138.796875 C-42.19012833 138.79833023 -40.91931915 138.79978546 -39.61000061 138.80128479 C-36.92556451 138.79962583 -34.24254953 138.7901564 -31.55834961 138.76733398 C-28.12273946 138.73892031 -24.68801746 138.74169742 -21.25234127 138.7544241 C-17.96764959 138.76306012 -14.68310138 138.74793384 -11.3984375 138.734375 C-9.54991432 138.73877846 -9.54991432 138.73877846 -7.66404724 138.74327087 C-6.51928421 138.7305867 -5.37452118 138.71790253 -4.19506836 138.70483398 C-2.68546791 138.69672951 -2.68546791 138.69672951 -1.14537048 138.6884613 C1.91112972 138.24119049 3.28735949 137.41993177 5.50390625 135.30078125 C7.37575595 129.24416411 6.64615619 123.14328109 4.50390625 117.30078125 C1.14273704 112.21101073 -1.79666206 110.03096587 -7.49609375 108.30078125 C-10.18021191 108.37141594 -11.981316 109.03144606 -14.34765625 110.26953125 C-21.00608598 113.65927729 -27.08210681 114.38684955 -34.49609375 113.30078125 C-37.31612184 112.20830388 -39.79266947 110.96221926 -42.375 109.39453125 C-48.11360905 106.43539583 -52.90090168 109.92311537 -57.24609375 113.67578125 Z " fill="#D45DFF" transform="translate(201.49609375,31.69921875)"/>
</svg>
